<svg width="36" height="36" viewBox="0 0 36 36" fill="none" xmlns="http://www.w3.org/2000/svg">
<g clip-path="url(#clip0_876_8768)">
<path fill-rule="evenodd" clip-rule="evenodd" d="M11.5774 10.3088C13.3773 8.80032 15.6516 7.97504 18 7.97813C23.5313 7.97813 28.0219 12.4688 28.0219 18C28.0219 18.0596 28.0215 18.1193 28.0204 18.1785C27.627 17.766 27.1539 17.4378 26.6298 17.2137C26.1057 16.9897 25.5416 16.8744 24.9716 16.875C23.0625 16.875 21.4481 18.1455 20.9269 19.8863C20.529 20.1598 20.2037 20.526 19.979 20.9534C19.7543 21.3807 19.637 21.8563 19.6373 22.3391C19.6376 23.1289 19.9516 23.8862 20.51 24.4446C21.0684 25.0031 21.8257 25.317 22.6155 25.3174H24.8453C23.2658 26.7992 21.2476 27.7276 19.0946 27.9626C19.1997 27.244 19.0316 26.512 18.6236 25.9112C18.2155 25.3104 17.5971 24.8843 16.8904 24.717C16.5499 24.0788 16.0384 23.548 15.4132 23.1843C14.788 22.8205 14.0738 22.6381 13.3508 22.6575C12.8989 22.0634 12.3158 21.5818 11.647 21.2504C10.9782 20.919 10.2418 20.7468 9.49538 20.7473C9.11738 20.7473 8.7495 20.7904 8.39663 20.8725C8.00722 19.5635 7.88781 18.1891 8.04563 16.8326H13.7145C14.3624 16.8323 14.9836 16.5748 15.4417 16.1167C15.8998 15.6586 16.1573 15.0374 16.1576 14.3895C16.1573 13.8616 15.9862 13.348 15.6698 12.9255C15.3534 12.503 14.9087 12.1942 14.4023 12.0454C14.1273 11.5764 13.7366 11.1858 13.2676 10.911C12.7985 10.6363 12.2668 10.4865 11.7233 10.476C11.676 10.419 11.6274 10.3633 11.5774 10.3088ZM17.4375 0.75V3.82688C17.4375 3.97606 17.4968 4.11913 17.6023 4.22462C17.7077 4.33011 17.8508 4.38938 18 4.38938C18.1492 4.38938 18.2923 4.33011 18.3977 4.22462C18.5032 4.11913 18.5625 3.97606 18.5625 3.82688V0.75C18.5625 0.600816 18.5032 0.457742 18.3977 0.352252C18.2923 0.246763 18.1492 0.1875 18 0.1875C17.8508 0.1875 17.7077 0.246763 17.6023 0.352252C17.4968 0.457742 17.4375 0.600816 17.4375 0.75ZM17.4375 32.1731V35.25C17.4375 35.3992 17.4968 35.5423 17.6023 35.6478C17.7077 35.7532 17.8508 35.8125 18 35.8125C18.1492 35.8125 18.2923 35.7532 18.3977 35.6478C18.5032 35.5423 18.5625 35.3992 18.5625 35.25V32.1731C18.5625 32.0239 18.5032 31.8809 18.3977 31.7754C18.2923 31.6699 18.1492 31.6106 18 31.6106C17.8508 31.6106 17.7077 31.6699 17.6023 31.7754C17.4968 31.8809 17.4375 32.0239 17.4375 32.1731ZM5.4045 6.20025L7.58025 8.37563C7.63214 8.42935 7.69421 8.4722 7.76284 8.50168C7.83146 8.53116 7.90527 8.54668 7.97996 8.54733C8.05465 8.54798 8.12872 8.53375 8.19785 8.50546C8.26698 8.47718 8.32978 8.43541 8.3826 8.3826C8.43541 8.32978 8.47718 8.26698 8.50546 8.19785C8.53375 8.12872 8.54798 8.05465 8.54733 7.97996C8.54668 7.90527 8.53116 7.83146 8.50168 7.76284C8.4722 7.69421 8.42935 7.63214 8.37563 7.58025L6.20025 5.4045C6.09465 5.29912 5.95156 5.23993 5.80238 5.23993C5.65319 5.23993 5.5101 5.29912 5.4045 5.4045C5.29912 5.5101 5.23993 5.65319 5.23993 5.80238C5.23993 5.95156 5.29912 6.09465 5.4045 6.20025ZM27.6244 28.4198L29.7998 30.5955C29.9053 30.7009 30.0484 30.7601 30.1976 30.7601C30.3468 30.7601 30.4899 30.7009 30.5955 30.5955C30.7009 30.4899 30.7601 30.3468 30.7601 30.1976C30.7601 30.0484 30.7009 29.9053 30.5955 29.7998L28.4198 27.6244C28.3679 27.5707 28.3058 27.5278 28.2372 27.4983C28.1685 27.4688 28.0947 27.4533 28.02 27.4527C27.9454 27.452 27.8713 27.4663 27.8022 27.4945C27.733 27.5228 27.6702 27.5646 27.6174 27.6174C27.5646 27.6702 27.5228 27.733 27.4945 27.8022C27.4663 27.8713 27.452 27.9454 27.4527 28.02C27.4533 28.0947 27.4688 28.1685 27.4983 28.2372C27.5278 28.3058 27.5707 28.3679 27.6244 28.4198ZM29.7998 5.4045L27.6244 7.58025C27.5707 7.63214 27.5278 7.69421 27.4983 7.76284C27.4688 7.83146 27.4533 7.90527 27.4527 7.97996C27.452 8.05465 27.4663 8.12872 27.4945 8.19785C27.5228 8.26698 27.5646 8.32978 27.6174 8.3826C27.6702 8.43541 27.733 8.47718 27.8022 8.50546C27.8713 8.53375 27.9454 8.54798 28.02 8.54733C28.0947 8.54668 28.1685 8.53116 28.2372 8.50168C28.3058 8.4722 28.3679 8.42935 28.4198 8.37563L30.5955 6.20025C30.7009 6.09465 30.7601 5.95156 30.7601 5.80238C30.7601 5.65319 30.7009 5.5101 30.5955 5.4045C30.4899 5.29912 30.3468 5.23993 30.1976 5.23993C30.0484 5.23993 29.9053 5.29912 29.7998 5.4045ZM0.75 18.5625H3.82688C3.97606 18.5625 4.11913 18.5032 4.22462 18.3977C4.33011 18.2923 4.38938 18.1492 4.38938 18C4.38938 17.8508 4.33011 17.7077 4.22462 17.6023C4.11913 17.4968 3.97606 17.4375 3.82688 17.4375H0.75C0.600816 17.4375 0.457742 17.4968 0.352252 17.6023C0.246763 17.7077 0.1875 17.8508 0.1875 18C0.1875 18.1492 0.246763 18.2923 0.352252 18.3977C0.457742 18.5032 0.600816 18.5625 0.75 18.5625ZM32.1731 18.5625H35.25C35.3992 18.5625 35.5423 18.5032 35.6478 18.3977C35.7532 18.2923 35.8125 18.1492 35.8125 18C35.8125 17.8508 35.7532 17.7077 35.6478 17.6023C35.5423 17.4968 35.3992 17.4375 35.25 17.4375H32.1731C32.0239 17.4375 31.8809 17.4968 31.7754 17.6023C31.6699 17.7077 31.6106 17.8508 31.6106 18C31.6106 18.1492 31.6699 18.2923 31.7754 18.3977C31.8809 18.5032 32.0239 18.5625 32.1731 18.5625Z" fill="black"/>
<path fill-rule="evenodd" clip-rule="evenodd" d="M21.9113 20.6246C22.1386 19.1392 23.4229 18 24.9717 18C25.5359 18.0001 26.0893 18.1543 26.5723 18.4459C27.0553 18.7376 27.4494 19.1556 27.7122 19.6549C28.2882 19.5126 28.8969 19.5981 29.4115 19.8934C29.9262 20.1888 30.307 20.6712 30.4748 21.2404C30.6763 21.2277 30.8782 21.2565 31.0681 21.3248C31.258 21.3932 31.4319 21.4997 31.579 21.6379C31.7262 21.7761 31.8434 21.9429 31.9236 22.1281C32.0038 22.3133 32.0453 22.513 32.0453 22.7149C32.0452 23.1067 31.8895 23.4824 31.6125 23.7595C31.3354 24.0366 30.9596 24.1923 30.5678 24.1924H22.6156C22.1241 24.1921 21.6529 23.9967 21.3055 23.6492C20.958 23.3017 20.7626 22.8305 20.7623 22.3391C20.7625 21.9717 20.8718 21.6126 21.0764 21.3073C21.2809 21.0021 21.5715 20.7645 21.9113 20.6246ZM5.99181 12.5246C6.09282 11.8728 6.42351 11.2786 6.9242 10.8492C7.4249 10.4198 8.0626 10.1836 8.72219 10.1831C9.22549 10.1832 9.71921 10.3208 10.15 10.581C10.5809 10.8411 10.9324 11.2141 11.1668 11.6595C11.6808 11.5326 12.2238 11.6089 12.683 11.8723C13.1421 12.1358 13.4819 12.5662 13.6317 13.074C13.8114 13.0628 13.9915 13.0885 14.1609 13.1495C14.3302 13.2105 14.4853 13.3056 14.6166 13.4288C14.7479 13.5521 14.8525 13.7009 14.924 13.8661C14.9956 14.0313 15.0326 14.2094 15.0327 14.3895C15.0325 14.739 14.8936 15.0742 14.6464 15.3213C14.3992 15.5685 14.0641 15.7074 13.7146 15.7076H6.62031C6.1819 15.7073 5.76153 15.533 5.45153 15.223C5.14153 14.913 4.96724 14.4926 4.96694 14.0542C4.96694 13.3642 5.39069 12.7721 5.99181 12.5246ZM5.81594 25.0275C6.08931 23.2417 7.63356 21.8722 9.49544 21.8722C10.1737 21.8723 10.8391 22.0577 11.4198 22.4083C12.0004 22.7588 12.4743 23.2614 12.7902 23.8616C13.4828 23.6907 14.2147 23.7936 14.8334 24.1487C15.4521 24.5038 15.9101 25.0839 16.1119 25.7681C16.3541 25.7529 16.5968 25.7875 16.8252 25.8696C17.0535 25.9518 17.2625 26.0799 17.4394 26.246C17.6163 26.4121 17.7573 26.6127 17.8538 26.8353C17.9502 27.058 18 27.2981 18.0001 27.5407C17.9999 28.0118 17.8126 28.4635 17.4796 28.7966C17.1465 29.1297 16.6948 29.3169 16.2237 29.3171H6.66306C6.07219 29.3168 5.5056 29.082 5.08778 28.6641C4.66997 28.2463 4.43511 27.6797 4.43481 27.0889C4.43498 26.6471 4.56633 26.2154 4.81222 25.8484C5.05811 25.4814 5.40745 25.1957 5.81594 25.0275Z" fill="black"/>
</g>
<defs>
<clipPath id="clip0_876_8768">
<rect width="36" height="36" fill="white"/>
</clipPath>
</defs>
</svg>
