<svg width="36" height="36" viewBox="0 0 36 36" fill="none" xmlns="http://www.w3.org/2000/svg">
<g clip-path="url(#clip0_876_8760)">
<path d="M11.1491 10.8526C13.0664 9.2523 15.4994 8.37102 18 8.37102C20.5367 8.37102 22.9963 9.27455 24.9258 10.9152C26.8337 12.5375 28.1178 14.7821 28.5416 17.2355C28.5653 17.3726 28.6425 17.4947 28.7562 17.5749C28.8699 17.6551 29.0108 17.6869 29.1479 17.6633C29.2851 17.6396 29.4072 17.5624 29.4874 17.4487C29.5676 17.335 29.5994 17.1941 29.5757 17.0569C29.1102 14.362 27.7002 11.8969 25.6056 10.1158C23.4865 8.314 20.7855 7.32169 18 7.32169C15.2541 7.32169 12.5823 8.28951 10.4767 10.047C10.3718 10.1367 10.3065 10.2642 10.295 10.4018C10.2834 10.5393 10.3266 10.6759 10.415 10.7819C10.5035 10.8879 10.6301 10.9547 10.7676 10.9679C10.905 10.9812 11.0421 10.9397 11.1491 10.8526ZM17.965 6.10362C18.8426 6.10362 19.5566 5.38961 19.5566 4.51197V2.45145C19.5566 1.57387 18.8426 0.859863 17.965 0.859863C17.0874 0.859863 16.3734 1.57387 16.3734 2.45145V4.51197C16.3734 5.38961 17.0874 6.10362 17.965 6.10362ZM17.4228 2.45145C17.4228 2.15251 17.6661 1.90926 17.965 1.90926C18.264 1.90926 18.5072 2.15251 18.5072 2.45145V4.51197C18.5072 4.81091 18.264 5.05423 17.965 5.05423C17.6661 5.05423 17.4228 4.81091 17.4228 4.51197V2.45145ZM6.55592 9.92601C6.85654 10.2267 7.25622 10.3922 7.68136 10.3922C8.10651 10.3922 8.50619 10.2267 8.80688 9.92608V9.92601C9.42735 9.30547 9.42735 8.29574 8.80681 7.67513L7.34983 6.21822C7.04921 5.91753 6.64953 5.75201 6.22438 5.75201C5.79924 5.75201 5.39956 5.91753 5.09894 6.21815C4.4784 6.83876 4.4784 7.84849 5.09894 8.4691L6.55592 9.92601ZM5.841 6.96014C5.94343 6.85772 6.0795 6.80133 6.22431 6.80133C6.36913 6.80133 6.50527 6.85772 6.60769 6.96021L8.06467 8.41712C8.27602 8.62854 8.27602 8.97253 8.06467 9.18402C7.96225 9.28644 7.82611 9.34283 7.68129 9.34283C7.53648 9.34283 7.40034 9.28644 7.29799 9.18395L5.841 7.72697C5.62959 7.51562 5.62959 7.17163 5.841 6.96014ZM1.59158 20.6964H3.30231C4.17988 20.6964 4.89389 19.9824 4.89389 19.1047C4.89389 18.2271 4.17988 17.5131 3.30231 17.5131H1.59158C0.714009 17.5131 0 18.2271 0 19.1047C0 19.9824 0.714009 20.6964 1.59158 20.6964ZM1.59158 18.5625H3.30231C3.60125 18.5625 3.84449 18.8058 3.84449 19.1047C3.84449 19.4037 3.60125 19.647 3.30231 19.647H1.59158C1.29265 19.647 1.0494 19.4037 1.0494 19.1047C1.0494 18.8058 1.29265 18.5625 1.59158 18.5625ZM27.1931 9.92608C27.4938 10.2267 27.8935 10.3922 28.3186 10.3922C28.7438 10.3922 29.1435 10.2267 29.4441 9.92608L30.9011 8.4691C31.5216 7.84849 31.5216 6.83876 30.9011 6.21822C30.6004 5.91753 30.2008 5.75201 29.7756 5.75201C29.3505 5.75201 28.9508 5.91753 28.6502 6.21815L27.1931 7.6752C26.5726 8.29574 26.5726 9.30547 27.1931 9.92608C27.1931 9.92601 27.1931 9.92601 27.1931 9.92608ZM27.9352 8.41719L29.3923 6.96014C29.4947 6.85772 29.6308 6.80133 29.7756 6.80133C29.9204 6.80133 30.0566 6.85772 30.1589 6.96021C30.3703 7.17156 30.3703 7.51555 30.1589 7.72697L28.7019 9.18402C28.5995 9.28644 28.4635 9.34283 28.3186 9.34283C28.1738 9.34283 28.0376 9.28644 27.9353 9.18402C27.7238 8.9726 27.7238 8.62861 27.9352 8.41719ZM31.1061 19.1047C31.1061 19.9824 31.8201 20.6964 32.6977 20.6964H34.4084C35.286 20.6964 36 19.9824 36 19.1047C36 18.2271 35.286 17.5131 34.4084 17.5131H32.6977C31.8201 17.5131 31.1061 18.2271 31.1061 19.1047ZM34.9506 19.1047C34.9506 19.4037 34.7074 19.647 34.4084 19.647H32.6977C32.3988 19.647 32.1555 19.4037 32.1555 19.1047C32.1555 18.8058 32.3988 18.5625 32.6977 18.5625H34.4084C34.7074 18.5625 34.9506 18.8058 34.9506 19.1047ZM11.5011 5.42998C11.5385 5.48788 11.5869 5.53783 11.6436 5.57699C11.7004 5.61614 11.7642 5.64373 11.8316 5.65818C11.899 5.67262 11.9686 5.67364 12.0364 5.66117C12.1042 5.6487 12.1688 5.62298 12.2266 5.5855C12.3435 5.50991 12.4255 5.391 12.4547 5.25493C12.4838 5.11887 12.4578 4.97679 12.3822 4.85995L11.8748 4.07584C11.8375 4.01781 11.789 3.96772 11.7323 3.92844C11.6756 3.88915 11.6116 3.86144 11.5442 3.8469C11.4767 3.83236 11.4071 3.83126 11.3392 3.84368C11.2713 3.8561 11.2065 3.88179 11.1486 3.91928C11.0907 3.95676 11.0407 4.00531 11.0015 4.06214C10.9624 4.11897 10.9348 4.18296 10.9204 4.25045C10.9061 4.31794 10.9051 4.38761 10.9177 4.45546C10.9303 4.52332 10.9561 4.58802 10.9937 4.64587L11.5011 5.42998ZM2.90417 13.6614L3.81518 13.867C3.85408 13.8757 3.89284 13.88 3.93111 13.88C4.06032 13.8801 4.18503 13.8325 4.28134 13.7464C4.37766 13.6602 4.43879 13.5416 4.45304 13.4131C4.46729 13.2847 4.43365 13.1556 4.35856 13.0504C4.28347 12.9452 4.17222 12.8715 4.04612 12.8433L3.1351 12.6377C3.06789 12.6226 2.99834 12.6208 2.93043 12.6325C2.86253 12.6442 2.7976 12.6692 2.73934 12.706C2.68109 12.7428 2.63066 12.7907 2.59093 12.847C2.55119 12.9033 2.52294 12.9669 2.50778 13.0341C2.49261 13.1013 2.49084 13.1709 2.50255 13.2388C2.51426 13.3067 2.53924 13.3716 2.57605 13.4299C2.61286 13.4881 2.66078 13.5386 2.71708 13.5783C2.77337 13.618 2.83695 13.6463 2.90417 13.6614ZM23.7733 5.5855C23.8311 5.62298 23.8958 5.6487 23.9636 5.66117C24.0313 5.67364 24.1009 5.67262 24.1683 5.65818C24.2357 5.64373 24.2996 5.61614 24.3563 5.57699C24.413 5.53783 24.4614 5.48788 24.4988 5.42998L25.0062 4.64587C25.0438 4.58802 25.0696 4.52332 25.0822 4.45546C25.0948 4.38761 25.0939 4.31794 25.0795 4.25045C25.0651 4.18296 25.0376 4.11897 24.9984 4.06214C24.9593 4.00531 24.9093 3.95676 24.8513 3.91928C24.7934 3.88179 24.7286 3.8561 24.6608 3.84368C24.5929 3.83126 24.5232 3.83236 24.4557 3.8469C24.3883 3.86144 24.3244 3.88915 24.2676 3.92844C24.2109 3.96772 24.1625 4.01781 24.1251 4.07584L23.6178 4.85995C23.5422 4.9768 23.5161 5.11887 23.5453 5.25492C23.5745 5.39098 23.6565 5.50988 23.7733 5.5855ZM32.0689 13.8799C32.1071 13.8799 32.146 13.8757 32.1848 13.8669L33.0958 13.6614C33.1631 13.6462 33.2266 13.618 33.2829 13.5782C33.3392 13.5385 33.3871 13.4881 33.424 13.4298C33.4608 13.3715 33.4857 13.3066 33.4974 13.2387C33.5092 13.1708 33.5074 13.1013 33.4922 13.034C33.4771 12.9668 33.4488 12.9032 33.4091 12.847C33.3693 12.7907 33.3189 12.7427 33.2607 12.7059C33.2024 12.6691 33.1375 12.6441 33.0696 12.6324C33.0017 12.6207 32.9321 12.6225 32.8649 12.6376L31.9539 12.8432C31.8278 12.8714 31.7165 12.9452 31.6414 13.0503C31.5664 13.1555 31.5327 13.2847 31.547 13.4131C31.5612 13.5415 31.6223 13.6602 31.7187 13.7463C31.815 13.8325 31.9397 13.88 32.0689 13.8799Z" fill="#010D0A" fill-opacity="0.6"/>
<path d="M35.4753 23.968H28.6785C29.3314 22.5427 29.6977 20.984 29.7427 19.4105C29.7447 19.3417 29.7331 19.2731 29.7085 19.2087C29.684 19.1443 29.647 19.0854 29.5997 19.0353C29.5524 18.9852 29.4957 18.9449 29.4328 18.9167C29.3699 18.8885 29.3021 18.873 29.2332 18.8711C28.9404 18.8644 28.702 19.091 28.6938 19.3806C28.6482 20.9763 28.2409 22.5556 27.5132 23.9679H8.48709C7.71068 22.4616 7.3012 20.775 7.3012 19.0698C7.3012 16.6084 8.11442 14.2944 9.6529 12.378C9.73759 12.2692 9.77609 12.1315 9.7601 11.9946C9.7441 11.8577 9.67489 11.7326 9.56741 11.6463C9.45993 11.56 9.32282 11.5195 9.18569 11.5335C9.04857 11.5474 8.92245 11.6148 8.83458 11.721C7.16905 13.7956 6.25181 16.4056 6.25181 19.0698C6.25181 20.7628 6.62043 22.4389 7.32135 23.9679H0.524698C0.234855 23.9679 0 24.2028 0 24.4926C0 24.7825 0.234855 25.0173 0.524698 25.0173H35.4753C35.7651 25.0173 36 24.7825 36 24.4926C36 24.2028 35.7651 23.968 35.4753 23.968ZM32.0693 27.3423H3.93069C3.64084 27.3423 3.40599 27.5772 3.40599 27.867C3.40599 28.1569 3.64084 28.3917 3.93069 28.3917H32.0694C32.3592 28.3917 32.5941 28.1569 32.5941 27.867C32.5941 27.5772 32.3592 27.3423 32.0693 27.3423ZM21.5718 34.0912H14.4282C14.1384 34.0912 13.9035 34.3261 13.9035 34.6159C13.9035 34.9058 14.1384 35.1406 14.4282 35.1406H21.5717C21.8616 35.1406 22.0964 34.9058 22.0964 34.6159C22.0964 34.3261 21.8616 34.0912 21.5718 34.0912ZM19.8509 31.7662C20.1408 31.7662 20.3756 31.5313 20.3756 31.2415C20.3756 30.9516 20.1408 30.7168 19.8509 30.7168H16.1491C15.8592 30.7168 15.6244 30.9516 15.6244 31.2415C15.6244 31.5313 15.8592 31.7662 16.1491 31.7662H19.8509ZM13.2034 30.7168H7.72061C7.43077 30.7168 7.19591 30.9516 7.19591 31.2415C7.19591 31.5313 7.43077 31.7662 7.72061 31.7662H13.2034C13.4933 31.7662 13.7281 31.5313 13.7281 31.2415C13.7281 30.9516 13.4932 30.7168 13.2034 30.7168ZM28.2795 30.7168H22.7966C22.5068 30.7168 22.2719 30.9516 22.2719 31.2415C22.2719 31.5313 22.5068 31.7662 22.7966 31.7662H28.2795C28.5693 31.7662 28.8042 31.5313 28.8042 31.2415C28.8042 30.9516 28.5692 30.7168 28.2795 30.7168Z" fill="#010D0A" fill-opacity="0.6"/>
</g>
<defs>
<clipPath id="clip0_876_8760">
<rect width="36" height="36" fill="white"/>
</clipPath>
</defs>
</svg>
