<svg width="31" height="21" viewBox="0 0 31 21" fill="none" xmlns="http://www.w3.org/2000/svg">
<path d="M24.8335 3.33317H14.1668V12.6665H3.50016V0.666504H0.833496V20.6665H3.50016V16.6665H27.5002V20.6665H30.1668V8.6665C30.1668 7.25202 29.6049 5.89546 28.6047 4.89527C27.6045 3.89507 26.248 3.33317 24.8335 3.33317ZM8.8335 11.3332C9.89436 11.3332 10.9118 10.9117 11.6619 10.1616C12.4121 9.41145 12.8335 8.39404 12.8335 7.33317C12.8335 6.27231 12.4121 5.25489 11.6619 4.50474C10.9118 3.7546 9.89436 3.33317 8.8335 3.33317C7.77263 3.33317 6.75521 3.7546 6.00507 4.50474C5.25492 5.25489 4.8335 6.27231 4.8335 7.33317C4.8335 8.39404 5.25492 9.41145 6.00507 10.1616C6.75521 10.9117 7.77263 11.3332 8.8335 11.3332Z" fill="url(#paint0_linear_876_10013)"/>
<defs>
<linearGradient id="paint0_linear_876_10013" x1="30.1668" y1="20.6665" x2="-1.87683" y2="7.04005" gradientUnits="userSpaceOnUse">
<stop stop-color="#0E9748"/>
<stop offset="1" stop-color="#34BC6D"/>
</linearGradient>
</defs>
</svg>
