<svg width="33" height="32" viewBox="0 0 33 32" fill="none" xmlns="http://www.w3.org/2000/svg">
<path d="M25.8333 6.66667V25.3333H7.16667V6.66667H25.8333ZM25.8333 4H7.16667C5.7 4 4.5 5.2 4.5 6.66667V25.3333C4.5 26.8 5.7 28 7.16667 28H25.8333C27.3 28 28.5 26.8 28.5 25.3333V6.66667C28.5 5.2 27.3 4 25.8333 4ZM13.8333 24V18.6667H15.1667V15.3333C15.1667 13.8667 13.9667 12.6667 12.5 12.6667H11.1667C9.7 12.6667 8.5 13.8667 8.5 15.3333V18.6667H9.83333V24H13.8333ZM11.8333 11.3333C12.2754 11.3333 12.6993 11.1577 13.0118 10.8452C13.3244 10.5326 13.5 10.1087 13.5 9.66667C13.5 9.22464 13.3244 8.80072 13.0118 8.48816C12.6993 8.17559 12.2754 8 11.8333 8C11.3913 8 10.9674 8.17559 10.6548 8.48816C10.3423 8.80072 10.1667 9.22464 10.1667 9.66667C10.1667 10.1087 10.3423 10.5326 10.6548 10.8452C10.9674 11.1577 11.3913 11.3333 11.8333 11.3333ZM24.5 14.6667L21.1667 9.33333L17.8333 14.6667H24.5ZM17.8333 17.3333L21.1667 22.6667L24.5 17.3333H17.8333Z" fill="url(#paint0_linear_876_10054)"/>
<defs>
<linearGradient id="paint0_linear_876_10054" x1="28.5" y1="28" x2="-0.0578452" y2="19.7199" gradientUnits="userSpaceOnUse">
<stop stop-color="#0E9748"/>
<stop offset="1" stop-color="#34BC6D"/>
</linearGradient>
</defs>
</svg>
