<svg width="33" height="32" viewBox="0 0 33 32" fill="none" xmlns="http://www.w3.org/2000/svg">
<path d="M16.4998 17.3332C17.2976 17.3331 18.0771 17.5716 18.7383 18.018C19.3994 18.4644 19.912 19.0983 20.2102 19.8382C20.5083 20.5781 20.5784 21.3903 20.4114 22.1704C20.2445 22.9505 19.8481 23.6628 19.2732 24.2158L16.7265 26.6665H20.4998V29.3332H12.4998V27.0345L17.4238 22.2945C17.5827 22.1418 17.7013 21.9521 17.7689 21.7423C17.8365 21.5326 17.851 21.3093 17.8113 21.0926C17.7715 20.8758 17.6786 20.6723 17.5409 20.5002C17.4032 20.3281 17.225 20.1929 17.0223 20.1065C16.8195 20.0202 16.5985 19.9854 16.379 20.0054C16.1596 20.0254 15.9485 20.0994 15.7646 20.221C15.5808 20.3425 15.4299 20.5077 15.3255 20.7018C15.2212 20.8959 15.1665 21.1128 15.1665 21.3332H12.4998C12.4998 20.2723 12.9213 19.2549 13.6714 18.5047C14.4216 17.7546 15.439 17.3332 16.4998 17.3332ZM24.4998 17.3332V22.6665H27.1665V17.3332H29.8332V29.3332H27.1665V25.3332H21.8332V17.3332H24.4998ZM5.83317 15.9998C5.83153 17.5993 6.19028 19.1786 6.88277 20.6203C7.57526 22.0621 8.5837 23.3293 9.83317 24.3278V27.5492C7.80545 26.3793 6.12169 24.6958 4.95136 22.6683C3.78102 20.6409 3.16542 18.3409 3.16651 15.9998H5.83317ZM16.4998 2.66651C23.4132 2.66651 29.0985 7.92918 29.7665 14.6665H27.0838C26.8241 12.6066 25.9688 10.6672 24.6229 9.08618C23.2771 7.50518 21.4991 6.35128 19.5071 5.76596C17.515 5.18064 15.3954 5.18935 13.4083 5.79102C11.4211 6.39269 9.65266 7.56117 8.31984 9.15318L11.1665 11.9998H3.16651V3.99984L6.42917 7.26118C7.67969 5.81742 9.22636 4.6598 10.9641 3.86698C12.7018 3.07416 14.5898 2.66473 16.4998 2.66651Z" fill="url(#paint0_linear_876_10062)"/>
<defs>
<linearGradient id="paint0_linear_876_10062" x1="29.8332" y1="29.3332" x2="-1.89777" y2="20.1331" gradientUnits="userSpaceOnUse">
<stop stop-color="#0E9748"/>
<stop offset="1" stop-color="#34BC6D"/>
</linearGradient>
</defs>
</svg>
