<svg width="32" height="32" viewBox="0 0 32 32" fill="none" xmlns="http://www.w3.org/2000/svg">
<path fill-rule="evenodd" clip-rule="evenodd" d="M17.4723 5.56918L19.9089 10.4368C20.1477 10.9147 20.6086 11.2461 21.1431 11.3227L26.5938 12.1073C27.9405 12.3018 28.4764 13.9339 27.5018 14.8691L23.5602 18.6564C23.1729 19.0289 22.9966 19.5642 23.0882 20.09L24.0184 25.4369C24.2475 26.7596 22.8397 27.7688 21.636 27.143L16.7643 24.6167C16.2867 24.3689 15.7147 24.3689 15.2357 24.6167L10.364 27.143C9.16031 27.7688 7.75253 26.7596 7.98299 25.4369L8.91179 20.09C9.00343 19.5642 8.82711 19.0289 8.43976 18.6564L4.49824 14.8691C3.52362 13.9339 4.05952 12.3018 5.40622 12.1073L10.8569 11.3227C11.3914 11.2461 11.8537 10.9147 12.0925 10.4368L14.5277 5.56918C15.1302 4.36561 16.8698 4.36561 17.4723 5.56918Z" stroke="#424242" stroke-width="1.5" stroke-linecap="round" stroke-linejoin="round"/>
</svg>
