<svg width="33" height="32" viewBox="0 0 33 32" fill="none" xmlns="http://www.w3.org/2000/svg">
<path opacity="0.3" d="M29.8332 28.0002C28.3532 28.0002 27.5265 27.5069 26.9265 27.1469C26.4332 26.8535 26.1265 26.6669 25.3932 26.6669C24.6465 26.6669 24.3532 26.8402 23.8598 27.1469C23.2465 27.5069 22.4332 28.0002 20.9532 28.0002C19.4732 28.0002 18.6465 27.5069 18.0465 27.1469C17.5532 26.8535 17.2465 26.6669 16.5132 26.6669C15.7665 26.6669 15.4732 26.8402 14.9798 27.1469C14.3665 27.5069 13.5398 28.0002 12.0598 28.0002C10.5798 28.0002 9.75317 27.5069 9.15317 27.1469C8.65984 26.8402 8.35317 26.6669 7.61984 26.6669C6.8865 26.6669 6.57984 26.8402 6.0865 27.1469C5.47317 27.5069 4.6465 28.0002 3.1665 28.0002V25.3335C3.91317 25.3335 4.2065 25.1602 4.69984 24.8535C5.31317 24.4935 6.13984 24.0002 7.61984 24.0002C9.09984 24.0002 9.9265 24.4935 10.5265 24.8535C11.0198 25.1602 11.3132 25.3335 12.0598 25.3335C12.8065 25.3335 13.0998 25.1602 13.5932 24.8535C14.2065 24.4935 15.0332 24.0002 16.5132 24.0002C17.9932 24.0002 18.8198 24.4935 19.4198 24.8535C19.9132 25.1469 20.2198 25.3335 20.9532 25.3335C21.6865 25.3335 21.9932 25.1602 22.4865 24.8535C23.0865 24.4935 23.9132 24.0002 25.3932 24.0002C26.8732 24.0002 27.6998 24.4935 28.2998 24.8535C28.7932 25.1602 29.0865 25.3335 29.8332 25.3335V28.0002ZM29.8332 22.0002C28.3532 22.0002 27.5265 21.5069 26.9265 21.1469C26.4332 20.8535 26.1265 20.6669 25.3932 20.6669C24.6465 20.6669 24.3532 20.8402 23.8598 21.1469C23.2598 21.5069 22.4332 22.0002 20.9532 22.0002C19.4732 22.0002 18.6465 21.5069 18.0465 21.1469C17.5532 20.8535 17.2465 20.6669 16.5132 20.6669C15.7665 20.6669 15.4732 20.8402 14.9798 21.1469C14.3798 21.5069 13.5532 22.0002 12.0732 22.0002C10.5932 22.0002 9.7665 21.5069 9.1665 21.1469C8.67317 20.8535 8.3665 20.6669 7.63317 20.6669C6.89984 20.6669 6.59317 20.8402 6.09984 21.1469C5.47317 21.5069 4.6465 22.0002 3.1665 22.0002V19.3335C3.91317 19.3335 4.2065 19.1602 4.69984 18.8535C5.29984 18.4935 6.1265 18.0002 7.6065 18.0002C9.0865 18.0002 9.91317 18.4935 10.5132 18.8535C11.0065 19.1469 11.3132 19.3335 12.0465 19.3335C12.7932 19.3335 13.0865 19.1602 13.5798 18.8535C14.1798 18.4935 15.0065 18.0002 16.4865 18.0002C17.9665 18.0002 18.7932 18.4935 19.3932 18.8535C19.8865 19.1469 20.1932 19.3335 20.9265 19.3335C21.6598 19.3335 21.9665 19.1602 22.4598 18.8535C23.0598 18.4935 23.8865 18.0002 25.3665 18.0002C26.8465 18.0002 27.6732 18.4935 28.2732 18.8535C28.7665 19.1469 29.0732 19.3335 29.8065 19.3335V22.0002H29.8332ZM12.0598 16.0002C12.8065 16.0002 13.0998 15.8269 13.5932 15.5202C14.2065 15.1602 15.0332 14.6669 16.5132 14.6669C17.9932 14.6669 18.8198 15.1602 19.4198 15.5202C19.9132 15.8135 20.2198 16.0002 20.9532 16.0002C21.6865 16.0002 21.9932 15.8269 22.4865 15.5202C22.6465 15.4269 22.8332 15.3202 23.0332 15.2135L14.4732 6.66688C12.4065 4.60021 10.4998 3.98688 7.1665 4.00021V7.33355C9.59317 7.32021 11.0198 7.85355 12.4998 9.33355L13.8332 10.6669L9.49984 15.0002C9.91317 15.1602 10.2465 15.3602 10.5265 15.5202C11.0198 15.8269 11.3132 16.0002 12.0598 16.0002Z" fill="url(#paint0_linear_876_10030)"/>
<path opacity="0.3" d="M22.4998 10.6667C24.3408 10.6667 25.8332 9.17428 25.8332 7.33333C25.8332 5.49238 24.3408 4 22.4998 4C20.6589 4 19.1665 5.49238 19.1665 7.33333C19.1665 9.17428 20.6589 10.6667 22.4998 10.6667Z" fill="url(#paint1_linear_876_10030)"/>
<path d="M29.8332 22.0002H29.8065H29.8332ZM13.8332 10.6669L9.49984 15.0002C9.91317 15.1602 10.2465 15.3602 10.5265 15.5202C11.0198 15.8269 11.3132 16.0002 12.0598 16.0002C12.8065 16.0002 13.0998 15.8269 13.5932 15.5202C14.2065 15.1602 15.0332 14.6669 16.5132 14.6669C17.9932 14.6669 18.8198 15.1602 19.4198 15.5202C19.9132 15.8135 20.2198 16.0002 20.9532 16.0002C21.6865 16.0002 21.9932 15.8269 22.4865 15.5202C22.6465 15.4269 22.8332 15.3202 23.0332 15.2135L14.4732 6.66688C12.4065 4.60021 10.4998 3.98688 7.1665 4.00021V7.33355C9.59317 7.32021 11.0198 7.85355 12.4998 9.33355L13.8332 10.6669ZM7.63317 20.6669C8.3665 20.6669 8.67317 20.8535 9.1665 21.1469C9.7665 21.5069 10.5932 22.0002 12.0732 22.0002C13.5532 22.0002 14.3798 21.5069 14.9798 21.1469C15.4732 20.8402 15.7665 20.6669 16.5132 20.6669C17.2465 20.6669 17.5532 20.8535 18.0465 21.1469C18.6465 21.5069 19.4732 22.0002 20.9532 22.0002C22.4332 22.0002 23.2598 21.5069 23.8598 21.1469C24.3532 20.8402 24.6465 20.6669 25.3932 20.6669C26.1265 20.6669 26.4332 20.8535 26.9265 21.1469C27.5265 21.5069 28.3398 21.9869 29.8065 22.0002V19.3335C29.0732 19.3335 28.7665 19.1469 28.2732 18.8535C27.6732 18.4935 26.8465 18.0002 25.3665 18.0002C23.8865 18.0002 23.0598 18.4935 22.4598 18.8535C21.9665 19.1602 21.6598 19.3335 20.9265 19.3335C20.1932 19.3335 19.8865 19.1469 19.3932 18.8535C18.7932 18.4935 17.9665 18.0002 16.4865 18.0002C15.0065 18.0002 14.1798 18.4935 13.5798 18.8535C13.0865 19.1602 12.7932 19.3335 12.0465 19.3335C11.3132 19.3335 11.0065 19.1469 10.5132 18.8535C9.91317 18.4935 9.0865 18.0002 7.6065 18.0002C6.1265 18.0002 5.29984 18.4935 4.69984 18.8535C4.2065 19.1602 3.91317 19.3335 3.1665 19.3335V22.0002C4.6465 22.0002 5.47317 21.5069 6.09984 21.1469C6.59317 20.8402 6.89984 20.6669 7.63317 20.6669ZM25.3932 24.0002C23.9132 24.0002 23.0865 24.4935 22.4865 24.8535C21.9932 25.1602 21.6865 25.3335 20.9532 25.3335C20.2198 25.3335 19.9132 25.1469 19.4198 24.8535C18.8198 24.4935 17.9932 24.0002 16.5132 24.0002C15.0332 24.0002 14.2065 24.4935 13.5932 24.8535C13.0998 25.1602 12.8065 25.3335 12.0598 25.3335C11.3132 25.3335 11.0198 25.1602 10.5265 24.8535C9.9265 24.4935 9.09984 24.0002 7.61984 24.0002C6.13984 24.0002 5.31317 24.4935 4.69984 24.8535C4.2065 25.1602 3.91317 25.3335 3.1665 25.3335V28.0002C4.6465 28.0002 5.47317 27.5069 6.0865 27.1469C6.57984 26.8402 6.8865 26.6669 7.61984 26.6669C8.35317 26.6669 8.65984 26.8402 9.15317 27.1469C9.75317 27.5069 10.5798 28.0002 12.0598 28.0002C13.5398 28.0002 14.3665 27.5069 14.9798 27.1469C15.4732 26.8402 15.7665 26.6669 16.5132 26.6669C17.2465 26.6669 17.5532 26.8535 18.0465 27.1469C18.6465 27.5069 19.4732 28.0002 20.9532 28.0002C22.4332 28.0002 23.2465 27.5069 23.8598 27.1469C24.3532 26.8402 24.6465 26.6669 25.3932 26.6669C26.1265 26.6669 26.4332 26.8535 26.9265 27.1469C27.5265 27.5069 28.3532 28.0002 29.8332 28.0002V25.3335C29.0865 25.3335 28.7932 25.1602 28.2998 24.8535C27.6998 24.4935 26.8732 24.0002 25.3932 24.0002Z" fill="url(#paint2_linear_876_10030)"/>
<path d="M22.4998 10.6667C24.3408 10.6667 25.8332 9.17428 25.8332 7.33333C25.8332 5.49238 24.3408 4 22.4998 4C20.6589 4 19.1665 5.49238 19.1665 7.33333C19.1665 9.17428 20.6589 10.6667 22.4998 10.6667Z" fill="url(#paint3_linear_876_10030)"/>
<defs>
<linearGradient id="paint0_linear_876_10030" x1="29.8332" y1="28.0002" x2="-1.33095" y2="17.9606" gradientUnits="userSpaceOnUse">
<stop stop-color="#0E9748"/>
<stop offset="1" stop-color="#34BC6D"/>
</linearGradient>
<linearGradient id="paint1_linear_876_10030" x1="25.8332" y1="10.6667" x2="17.9004" y2="8.36664" gradientUnits="userSpaceOnUse">
<stop stop-color="#0E9748"/>
<stop offset="1" stop-color="#34BC6D"/>
</linearGradient>
<linearGradient id="paint2_linear_876_10030" x1="29.8332" y1="28.0002" x2="-1.33095" y2="17.9606" gradientUnits="userSpaceOnUse">
<stop stop-color="#0E9748"/>
<stop offset="1" stop-color="#34BC6D"/>
</linearGradient>
<linearGradient id="paint3_linear_876_10030" x1="25.8332" y1="10.6667" x2="17.9004" y2="8.36664" gradientUnits="userSpaceOnUse">
<stop stop-color="#0E9748"/>
<stop offset="1" stop-color="#34BC6D"/>
</linearGradient>
</defs>
</svg>
