<svg width="33" height="32" viewBox="0 0 33 32" fill="none" xmlns="http://www.w3.org/2000/svg">
<path d="M24.2122 14.2771C25.0201 15.0948 25.6966 16.0325 26.2176 17.0571C26.3662 17.3704 26.387 17.7294 26.2754 18.0577C26.1638 18.3861 25.9287 18.658 25.6199 18.8159C25.3111 18.9737 24.953 19.0051 24.6215 18.9032C24.2899 18.8014 24.0112 18.5744 23.8442 18.2705C23.4497 17.4945 22.9379 16.7839 22.3269 16.1638C21.4142 15.2507 20.2981 14.567 19.0701 14.1685C17.8421 13.77 16.5371 13.6682 15.2622 13.8714C13.9873 14.0746 12.7786 14.5771 11.7354 15.3376C10.6921 16.098 9.84388 17.0949 9.26023 18.2465C9.09603 18.5539 8.81796 18.7848 8.48559 18.8898C8.15322 18.9947 7.79297 18.9653 7.482 18.8079C7.17102 18.6505 6.93404 18.3776 6.82182 18.0476C6.70959 17.7176 6.73104 17.3568 6.88157 17.0425C7.65544 15.515 8.78027 14.1926 10.1639 13.1837C11.5474 12.1748 13.1504 11.5081 14.8414 11.2383C16.5324 10.9685 18.2632 11.1032 19.8921 11.6314C21.5209 12.1596 23.0014 13.0663 24.2122 14.2771ZM21.4802 18.2665C22.0936 18.8798 22.5976 19.6318 22.9496 20.4318C23.0915 20.7557 23.099 21.1228 22.9704 21.4522C22.8417 21.7816 22.5875 22.0465 22.2636 22.1885C21.9396 22.3304 21.5726 22.3379 21.2432 22.2093C20.9137 22.0806 20.6489 21.8264 20.5069 21.5025C20.2881 21.0003 19.9789 20.5425 19.5949 20.1518C18.7865 19.3435 17.6901 18.8893 16.5469 18.8893C15.4037 18.8893 14.3073 19.3435 13.4989 20.1518C13.1199 20.5367 12.816 20.9888 12.6029 21.4851C12.5341 21.6476 12.4337 21.7948 12.3076 21.9182C12.1815 22.0416 12.0321 22.1387 11.8682 22.2039C11.7042 22.2692 11.529 22.3012 11.3526 22.2982C11.1762 22.2952 11.0021 22.2572 10.8405 22.1865C10.6788 22.1157 10.5329 22.0136 10.411 21.886C10.2891 21.7584 10.1938 21.6079 10.1305 21.4432C10.0672 21.2785 10.0373 21.1029 10.0424 20.9265C10.0475 20.7502 10.0875 20.5766 10.1602 20.4158C10.5065 19.6151 10.9994 18.8861 11.6136 18.2665C12.922 16.9582 14.6966 16.2232 16.5469 16.2232C18.3972 16.2232 20.1718 16.9582 21.4802 18.2665ZM27.7256 11.0651C28.4029 11.7425 29.0416 12.5145 29.5976 13.3198C29.7955 13.6109 29.8703 13.9685 29.8057 14.3145C29.741 14.6606 29.5421 14.967 29.2524 15.167C28.9627 15.3669 28.6056 15.4442 28.2591 15.3819C27.9126 15.3196 27.6048 15.1228 27.4029 14.8345C26.9362 14.1598 26.4002 13.5105 25.8402 12.9505C20.6776 7.7878 12.3069 7.7878 7.1429 12.9505C6.6109 13.4825 6.08023 14.1318 5.59623 14.8305C5.39467 15.1211 5.08589 15.3198 4.73782 15.3829C4.38975 15.4459 4.03091 15.368 3.74023 15.1665C3.44956 14.9649 3.25085 14.6561 3.18784 14.3081C3.12483 13.96 3.20267 13.6011 3.40423 13.3105C3.9749 12.4865 4.60557 11.7171 5.25757 11.0651C11.4616 4.8598 21.5216 4.8598 27.7256 11.0651ZM17.9162 21.9211C18.2916 22.2965 18.5025 22.8056 18.5025 23.3365C18.5025 23.8673 18.2916 24.3764 17.9162 24.7518C17.5409 25.1272 17.0318 25.338 16.5009 25.338C15.97 25.338 15.4609 25.1272 15.0856 24.7518C14.7102 24.3764 14.4993 23.8673 14.4993 23.3365C14.4993 22.8056 14.7102 22.2965 15.0856 21.9211C15.4609 21.5458 15.97 21.3349 16.5009 21.3349C17.0318 21.3349 17.5409 21.5458 17.9162 21.9211Z" fill="url(#paint0_linear_876_10037)"/>
<defs>
<linearGradient id="paint0_linear_876_10037" x1="29.8284" y1="25.338" x2="0.353114" y2="13.2994" gradientUnits="userSpaceOnUse">
<stop stop-color="#0E9748"/>
<stop offset="1" stop-color="#34BC6D"/>
</linearGradient>
</defs>
</svg>
