<svg width="30" height="34" viewBox="0 0 30 34" fill="none" xmlns="http://www.w3.org/2000/svg">
<path fill-rule="evenodd" clip-rule="evenodd" d="M0.833496 14.1964C0.833496 6.52998 7.23996 0.333496 14.9892 0.333496C22.7604 0.333496 29.1668 6.52998 29.1668 14.1964C29.1668 18.0596 27.7618 21.6462 25.4493 24.6861C22.8982 28.0394 19.7538 30.9609 16.2144 33.2542C15.4043 33.7842 14.6733 33.8242 13.7842 33.2542C10.2247 30.9609 7.08031 28.0394 4.551 24.6861C2.2368 21.6462 0.833496 18.0596 0.833496 14.1964ZM10.3239 14.6281C10.3239 17.1963 12.4196 19.2163 14.9892 19.2163C17.5606 19.2163 19.6764 17.1963 19.6764 14.6281C19.6764 12.0798 17.5606 9.96155 14.9892 9.96155C12.4196 9.96155 10.3239 12.0798 10.3239 14.6281Z" fill="#010D0A"/>
</svg>
