<svg width="33" height="32" viewBox="0 0 33 32" fill="none" xmlns="http://www.w3.org/2000/svg">
<path d="M27.9265 19.8132L29.8332 17.9065L27.9265 15.9998L23.1665 20.7598L11.7398 9.33317L16.4998 4.57317L14.5932 2.6665L12.6865 4.57317L10.7798 2.6665L7.9265 5.51984L6.01984 3.61317L4.11317 5.51984L6.01984 7.4265L3.1665 10.2798L5.07317 12.1865L3.1665 14.0932L5.07317 15.9998L9.83317 11.2398L21.2598 22.6665L16.4998 27.4265L18.4065 29.3332L20.3132 27.4265L22.2198 29.3332L25.0732 26.4798L26.9798 28.3865L28.8865 26.4798L26.9798 24.5732L29.8332 21.7198L27.9265 19.8132Z" fill="url(#paint0_linear_876_10058)"/>
<defs>
<linearGradient id="paint0_linear_876_10058" x1="29.8332" y1="29.3332" x2="-1.89777" y2="20.1331" gradientUnits="userSpaceOnUse">
<stop stop-color="#0E9748"/>
<stop offset="1" stop-color="#34BC6D"/>
</linearGradient>
</defs>
</svg>
