<svg width="27" height="24" viewBox="0 0 27 24" fill="none" xmlns="http://www.w3.org/2000/svg">
<path d="M20.1665 21.3333H22.8332V10.6667H14.8332V21.3333H17.4998V13.3333H20.1665V21.3333ZM1.49984 21.3333V1.33333C1.49984 0.979711 1.64031 0.640573 1.89036 0.390524C2.14041 0.140476 2.47955 0 2.83317 0H21.4998C21.8535 0 22.1926 0.140476 22.4426 0.390524C22.6927 0.640573 22.8332 0.979711 22.8332 1.33333V8H25.4998V21.3333H26.8332V24H0.166504V21.3333H1.49984ZM6.83317 10.6667V13.3333H9.49984V10.6667H6.83317ZM6.83317 16V18.6667H9.49984V16H6.83317ZM6.83317 5.33333V8H9.49984V5.33333H6.83317Z" fill="url(#paint0_linear_876_10009)"/>
<defs>
<linearGradient id="paint0_linear_876_10009" x1="26.8332" y1="24" x2="-4.3309" y2="13.9603" gradientUnits="userSpaceOnUse">
<stop stop-color="#0E9748"/>
<stop offset="1" stop-color="#34BC6D"/>
</linearGradient>
</defs>
</svg>
