<svg width="16" height="18" viewBox="0 0 16 18" fill="none" xmlns="http://www.w3.org/2000/svg">
<path fill-rule="evenodd" clip-rule="evenodd" d="M0.916504 7.59797C0.916504 3.76475 4.11974 0.666504 7.99438 0.666504C11.8799 0.666504 15.0832 3.76475 15.0832 7.59797C15.0832 9.52958 14.3807 11.3229 13.2244 12.8428C11.9488 14.5194 10.3766 15.9802 8.60696 17.1269C8.20193 17.3919 7.8364 17.4119 7.39188 17.1269C5.61212 15.9802 4.03991 14.5194 2.77525 12.8428C1.61816 11.3229 0.916504 9.52958 0.916504 7.59797ZM5.66169 7.8138C5.66169 9.09793 6.70955 10.1079 7.99438 10.1079C9.28004 10.1079 10.338 9.09793 10.338 7.8138C10.338 6.53967 9.28004 5.48053 7.99438 5.48053C6.70955 5.48053 5.66169 6.53967 5.66169 7.8138Z" fill="#010D0A"/>
</svg>
