<svg width="33" height="32" viewBox="0 0 33 32" fill="none" xmlns="http://www.w3.org/2000/svg">
<g clip-path="url(#clip0_876_10045)">
<path d="M16.5 4C9.83333 4 4.5 9.33333 4.5 16C4.5 22.6667 9.83333 28 16.5 28C23.1667 28 28.5 22.6667 28.5 16C28.5 9.33333 23.1667 4 16.5 4ZM16.5 25.3333C11.3 25.3333 7.16667 21.2 7.16667 16C7.16667 10.8 11.3 6.66667 16.5 6.66667C21.7 6.66667 25.8333 10.8 25.8333 16C25.8333 21.2 21.7 25.3333 16.5 25.3333ZM27.8333 27.3333C30.7667 24.4 32.5 20.4 32.5 16C32.5 11.6 30.7667 7.6 27.8333 4.66667L26.3667 6.13333C28.9 8.66667 30.5 12.1333 30.5 16C30.5 19.8667 28.9 23.3333 26.3667 25.8667L27.8333 27.3333ZM6.63333 25.8667C4.1 23.3333 2.5 19.8667 2.5 16C2.5 12.1333 4.1 8.66667 6.63333 6.13333L5.16667 4.66667C2.23333 7.6 0.5 11.6 0.5 16C0.5 20.4 2.23333 24.4 5.16667 27.3333L6.63333 25.8667ZM13.1667 9.33333V22.6667H15.8333V17.3333H18.5C19.2072 17.3333 19.8855 17.0524 20.3856 16.5523C20.8857 16.0522 21.1667 15.3739 21.1667 14.6667V12C21.1667 11.2928 20.8857 10.6145 20.3856 10.1144C19.8855 9.61428 19.2072 9.33333 18.5 9.33333H13.1667ZM15.8333 12H18.5V14.6667H15.8333V12Z" fill="url(#paint0_linear_876_10045)"/>
</g>
<defs>
<linearGradient id="paint0_linear_876_10045" x1="32.5" y1="28" x2="-3.41118" y2="14.1172" gradientUnits="userSpaceOnUse">
<stop stop-color="#0E9748"/>
<stop offset="1" stop-color="#34BC6D"/>
</linearGradient>
<clipPath id="clip0_876_10045">
<rect width="32" height="32" fill="white" transform="translate(0.5)"/>
</clipPath>
</defs>
</svg>
