<svg width="33" height="32" viewBox="0 0 33 32" fill="none" xmlns="http://www.w3.org/2000/svg">
<path d="M11.3002 17.7866L15.0735 14.0133L6.82017 5.77328C6.18017 5.13328 5.0735 5.30661 4.6735 6.13328C3.72683 8.11994 4.0735 10.5599 5.7135 12.2133L11.3002 17.7866ZM20.3402 15.3733C22.3802 16.3199 25.2468 15.6533 27.3668 13.5333C29.9135 10.9866 30.4068 7.33328 28.4468 5.37328C26.5002 3.42661 22.8468 3.90661 20.2868 6.45328C18.1668 8.57328 17.5002 11.4399 18.4468 13.4799L6.36683 25.5599C6.11753 25.8092 5.97747 26.1474 5.97747 26.4999C5.97747 26.8525 6.11753 27.1906 6.36683 27.4399C6.61614 27.6892 6.95426 27.8293 7.30683 27.8293C7.6594 27.8293 7.99753 27.6892 8.24683 27.4399L16.5002 19.2133L24.7402 27.4533C24.8636 27.5767 25.0102 27.6746 25.1714 27.7414C25.3327 27.8083 25.5056 27.8426 25.6802 27.8426C25.8547 27.8426 26.0276 27.8083 26.1889 27.7414C26.3502 27.6746 26.4967 27.5767 26.6202 27.4533C26.7436 27.3298 26.8415 27.1833 26.9083 27.022C26.9751 26.8607 27.0095 26.6879 27.0095 26.5133C27.0095 26.3387 26.9751 26.1658 26.9083 26.0046C26.8415 25.8433 26.7436 25.6967 26.6202 25.5733L18.3802 17.3333L20.3402 15.3733Z" fill="url(#paint0_linear_876_10041)"/>
<defs>
<linearGradient id="paint0_linear_876_10041" x1="29.6481" y1="27.8426" x2="-0.314701" y2="18.4837" gradientUnits="userSpaceOnUse">
<stop stop-color="#0E9748"/>
<stop offset="1" stop-color="#34BC6D"/>
</linearGradient>
</defs>
</svg>
