<svg width="25" height="24" viewBox="0 0 25 24" fill="none" xmlns="http://www.w3.org/2000/svg">
<path d="M20.1667 0C21.3159 0 22.4181 0.456546 23.2308 1.2692C24.0435 2.08186 24.5 3.18406 24.5 4.33333V19.6667C24.5 20.8159 24.0435 21.9181 23.2308 22.7308C22.4181 23.5435 21.3159 24 20.1667 24H19.8333V15.1373L21.244 13.5507C21.6239 13.1235 21.8338 12.5717 21.8338 12C21.8338 11.4283 21.6239 10.8765 21.244 10.4493L19.8333 8.86267V0H20.1667ZM15.2827 16.744C14.951 16.449 14.7103 16.0655 14.5889 15.6385C14.4675 15.2115 14.4704 14.7587 14.5973 14.3333H10.4027C10.5318 14.7656 10.5329 15.2261 10.4057 15.6589C10.2786 16.0918 10.0286 16.4785 9.68622 16.7723C9.34379 17.066 8.92355 17.2542 8.47637 17.314C8.02919 17.3739 7.57426 17.3027 7.16667 17.1093V24H17.8333V17.1093C17.4193 17.3056 16.9566 17.3756 16.503 17.3107C16.0494 17.2457 15.625 17.0486 15.2827 16.744ZM15.2827 7.256C15.625 6.95138 16.0494 6.75429 16.503 6.68932C16.9566 6.62436 17.4193 6.69438 17.8333 6.89067V0H7.16667V6.89067C7.57431 6.69686 8.02942 6.62545 8.47684 6.68509C8.92425 6.74472 9.34477 6.93285 9.68742 7.22667C10.0301 7.52049 10.2801 7.90739 10.4073 8.34047C10.5345 8.77355 10.5334 9.23423 10.404 9.66667H14.596C14.4692 9.24115 14.4665 8.78831 14.5882 8.3613C14.7098 7.93429 14.9507 7.55085 15.2827 7.256ZM5.16667 8.86267V0H4.83333C3.68406 0 2.58186 0.456546 1.7692 1.2692C0.956546 2.08186 0.5 3.18406 0.5 4.33333V19.6667C0.5 20.8159 0.956546 21.9181 1.7692 22.7308C2.58186 23.5435 3.68406 24 4.83333 24H5.16667V15.1373L3.756 13.5507C3.37607 13.1235 3.16619 12.5717 3.16619 12C3.16619 11.4283 3.37607 10.8765 3.756 10.4493L5.16667 8.86267ZM17.2733 11H7.72667L8.91333 9.664C9.07715 9.46428 9.15732 9.20892 9.13707 8.95141C9.11681 8.6939 8.9977 8.45422 8.80467 8.28256C8.61165 8.11091 8.35969 8.02061 8.10158 8.03057C7.84347 8.04053 7.59922 8.14998 7.42 8.336L4.75333 11.336C4.59082 11.519 4.50107 11.7553 4.50107 12C4.50107 12.2447 4.59082 12.481 4.75333 12.664L7.42 15.664C7.50541 15.7681 7.61098 15.8539 7.73037 15.9163C7.84976 15.9786 7.98051 16.0162 8.11477 16.0267C8.24904 16.0373 8.38406 16.0206 8.51173 15.9777C8.63939 15.9348 8.75708 15.8666 8.85772 15.7771C8.95836 15.6876 9.03989 15.5787 9.09741 15.4569C9.15493 15.3351 9.18725 15.203 9.19245 15.0684C9.19764 14.9338 9.17559 14.7996 9.12763 14.6737C9.07967 14.5479 9.00678 14.433 8.91333 14.336L7.72667 13H17.2733L16.0867 14.336C15.9932 14.433 15.9203 14.5479 15.8724 14.6737C15.8244 14.7996 15.8024 14.9338 15.8076 15.0684C15.8127 15.203 15.8451 15.3351 15.9026 15.4569C15.9601 15.5787 16.0416 15.6876 16.1423 15.7771C16.2429 15.8666 16.3606 15.9348 16.4883 15.9777C16.6159 16.0206 16.751 16.0373 16.8852 16.0267C17.0195 16.0162 17.1502 15.9786 17.2696 15.9163C17.389 15.8539 17.4946 15.7681 17.58 15.664L20.2467 12.664L20.2613 12.648C20.419 12.4641 20.5042 12.229 20.501 11.9867C20.4978 11.7445 20.4064 11.5117 20.244 11.332L17.5813 8.336C17.4033 8.14519 17.1577 8.03156 16.897 8.01936C16.6363 8.00716 16.3811 8.09736 16.186 8.27071C15.9909 8.44405 15.8713 8.68681 15.8528 8.94713C15.8342 9.20745 15.9181 9.46472 16.0867 9.664L17.2733 11Z" fill="url(#paint0_linear_876_10021)"/>
<defs>
<linearGradient id="paint0_linear_876_10021" x1="24.5" y1="24" x2="-4.05785" y2="15.7199" gradientUnits="userSpaceOnUse">
<stop stop-color="#0E9748"/>
<stop offset="1" stop-color="#34BC6D"/>
</linearGradient>
</defs>
</svg>
