<svg width="28" height="25" viewBox="0 0 28 25" fill="none" xmlns="http://www.w3.org/2000/svg">
<path fill-rule="evenodd" clip-rule="evenodd" d="M20.5859 0.333252C22.3739 0.333252 24.0939 1.03992 25.3592 2.30792C26.6259 3.57325 27.3339 5.27992 27.3339 7.06659V17.5999C27.3339 21.3199 24.3072 24.3333 20.5859 24.3333H7.4139C3.69257 24.3333 0.667236 21.3199 0.667236 17.5999V7.06659C0.667236 3.34659 3.67924 0.333252 7.4139 0.333252H20.5859ZM22.7072 9.05325L22.8139 8.94659C23.1326 8.55992 23.1326 7.99992 22.7992 7.61325C22.6139 7.41459 22.3592 7.29325 22.0939 7.26659C21.8139 7.25192 21.5472 7.34659 21.3459 7.53325L15.3339 12.3333C14.5606 12.9746 13.4526 12.9746 12.6672 12.3333L6.66724 7.53325C6.25257 7.22659 5.67924 7.26659 5.3339 7.62659C4.9739 7.98659 4.9339 8.55992 5.23924 8.95992L5.4139 9.13325L11.4806 13.8666C12.2272 14.4533 13.1326 14.7733 14.0806 14.7733C15.0259 14.7733 15.9472 14.4533 16.6926 13.8666L22.7072 9.05325Z" fill="url(#paint0_linear_2321_6082)"/>
<defs>
<linearGradient id="paint0_linear_2321_6082" x1="27.3339" y1="24.3333" x2="-3.83016" y2="14.2935" gradientUnits="userSpaceOnUse">
<stop stop-color="#0E9748"/>
<stop offset="1" stop-color="#34BC6D"/>
</linearGradient>
</defs>
</svg>
