<svg width="48" height="27" viewBox="0 0 48 27" fill="none" xmlns="http://www.w3.org/2000/svg">
<rect x="0.5" y="0.5" width="46.25" height="26" rx="5.5" fill="#010D0A"/>
<rect x="0.5" y="0.5" width="46.25" height="26" rx="5.5" stroke="#DFE3E6"/>
<path d="M23.639 19.2797C22.297 20.4109 20.5562 21.0938 18.654 21.0938C14.4095 21.0938 10.9688 17.6939 10.9688 13.5C10.9688 9.30609 14.4095 5.90625 18.654 5.90625C20.5562 5.90625 22.297 6.58913 23.639 7.72032C24.981 6.58913 26.7218 5.90625 28.624 5.90625C32.8684 5.90625 36.3092 9.30609 36.3092 13.5C36.3092 17.6939 32.8684 21.0938 28.624 21.0938C26.7218 21.0938 24.981 20.4109 23.639 19.2797Z" fill="#ED0006"/>
<path d="M23.639 19.2796C25.2914 17.8868 26.3392 15.8143 26.3392 13.5C26.3392 11.1857 25.2914 9.11319 23.639 7.72036C24.981 6.58914 26.7219 5.90625 28.6241 5.90625C32.8685 5.90625 36.3093 9.30609 36.3093 13.5C36.3093 17.6939 32.8685 21.0938 28.6241 21.0938C26.7219 21.0938 24.981 20.4109 23.639 19.2796Z" fill="#F9A000"/>
<path d="M23.639 19.2796C25.2914 17.8867 26.3392 15.8142 26.3392 13.4999C26.3392 11.1856 25.2914 9.11305 23.639 7.72021C21.9866 9.11305 20.9388 11.1856 20.9388 13.4999C20.9388 15.8142 21.9866 17.8867 23.639 19.2796Z" fill="#FF5E00"/>
</svg>
