<svg width="49" height="48" viewBox="0 0 49 48" fill="none" xmlns="http://www.w3.org/2000/svg">
<rect x="0.75" width="48" height="48" rx="10" fill="#51A993"/>
<path opacity="0.4" d="M25.75 15.25H19.75C16.33 15.25 15 16.58 15 20V28C15 30.3 16.25 32.75 19.75 32.75H25.75C29.17 32.75 30.5 31.42 30.5 28V20C30.5 16.58 29.17 15.25 25.75 15.25Z" fill="#010D0A"/>
<path d="M24.2501 23.3801C25.2884 23.3801 26.1301 22.5384 26.1301 21.5001C26.1301 20.4618 25.2884 19.6201 24.2501 19.6201C23.2118 19.6201 22.3701 20.4618 22.3701 21.5001C22.3701 22.5384 23.2118 23.3801 24.2501 23.3801Z" fill="#010D0A"/>
<path d="M34.4005 18.1701C33.9905 17.9601 33.1305 17.7201 31.9605 18.5401L30.4805 19.5801C30.4905 19.7201 30.5005 19.8501 30.5005 20.0001V28.0001C30.5005 28.1501 30.4805 28.2801 30.4805 28.4201L31.9605 29.4601C32.5805 29.9001 33.1205 30.0401 33.5505 30.0401C33.9205 30.0401 34.2105 29.9401 34.4005 29.8401C34.8105 29.6301 35.5005 29.0601 35.5005 27.6301V20.3801C35.5005 18.9501 34.8105 18.3801 34.4005 18.1701Z" fill="#010D0A"/>
</svg>
