<svg width="49" height="48" viewBox="0 0 49 48" fill="none" xmlns="http://www.w3.org/2000/svg">
<rect x="0.25" width="48" height="48" rx="10" fill="#FD440F" fill-opacity="0.1"/>
<path opacity="0.4" d="M33.16 23.1203C33.16 28.0103 29.61 32.5903 24.76 33.9303C24.43 34.0203 24.07 34.0203 23.74 33.9303C18.89 32.5903 15.34 28.0103 15.34 23.1203V18.7303C15.34 17.9103 15.96 16.9803 16.73 16.6703L22.3 14.3903C23.55 13.8803 24.96 13.8803 26.21 14.3903L31.78 16.6703C32.54 16.9803 33.17 17.9103 33.17 18.7303L33.16 23.1203Z" fill="#010D0A"/>
<path d="M26.75 22.5C26.75 21.12 25.63 20 24.25 20C22.87 20 21.75 21.12 21.75 22.5C21.75 23.62 22.49 24.55 23.5 24.87V27.5C23.5 27.91 23.84 28.25 24.25 28.25C24.66 28.25 25 27.91 25 27.5V24.87C26.01 24.55 26.75 23.62 26.75 22.5Z" fill="#010D0A"/>
</svg>
