<svg width="83" height="80" viewBox="0 0 83 80" fill="none" xmlns="http://www.w3.org/2000/svg">
<circle cx="42.5" cy="40.5" r="31.5" fill="#00BCD3"/>
<circle cx="79.5" cy="12.5" r="3.5" fill="#00BCD3"/>
<circle cx="8.5" cy="4.5" r="4.5" fill="#00BCD3"/>
<circle cx="4" cy="59" r="2" fill="#00BCD3"/>
<circle cx="73" cy="71" r="1" fill="#00BCD3"/>
<path fill-rule="evenodd" clip-rule="evenodd" d="M48.2496 36.0803H52.8333C52.8333 32.4 50.6281 30.25 46.8918 30.25H37.1081C33.3718 30.25 31.1666 32.4 31.1666 36.0333V43.9667C31.1666 47.6 33.3718 49.75 37.1081 49.75H46.8918C50.6281 49.75 52.8333 47.6 52.8333 43.9667V43.6287H48.2496C46.1223 43.6287 44.3977 41.9473 44.3977 39.8733C44.3977 37.7992 46.1223 36.1178 48.2496 36.1178V36.0803ZM48.2495 37.6952H52.0243C52.4711 37.6952 52.8332 38.0483 52.8332 38.4839V41.2253C52.828 41.6588 52.4689 42.0089 52.0243 42.014H48.3362C47.2592 42.0281 46.3175 41.3092 46.0732 40.2865C45.9509 39.6516 46.1226 38.9965 46.5424 38.4967C46.9621 37.9969 47.587 37.7035 48.2495 37.6952ZM48.4132 40.5769H48.7695C49.2268 40.5769 49.5976 40.2154 49.5976 39.7695C49.5976 39.3236 49.2268 38.9621 48.7695 38.9621H48.4132C48.1944 38.9596 47.9837 39.0425 47.8281 39.1925C47.6726 39.3424 47.585 39.5468 47.585 39.7601C47.585 40.2076 47.9542 40.5718 48.4132 40.5769ZM36.2993 36.0809H42.4141C42.8715 36.0809 43.2422 35.7195 43.2422 35.2735C43.2422 34.8276 42.8715 34.4661 42.4141 34.4661H36.2993C35.8456 34.4661 35.4764 34.8219 35.4711 35.2641C35.4711 35.7116 35.8403 36.0758 36.2993 36.0809Z" fill="white"/>
<circle cx="47" cy="2" r="1" fill="#00BCD3"/>
<circle cx="27.5" cy="78.5" r="1.5" fill="#00BCD3"/>
<circle cx="54.5" cy="76.5" r="0.5" fill="#00BCD3"/>
<circle cx="76" cy="49" r="1" fill="#00BCD3"/>
<circle cx="0.5" cy="33.5" r="0.5" fill="#00BCD3"/>
</svg>
